<svg width="108" height="33" viewBox="0 0 108 33" fill="none" xmlns="http://www.w3.org/2000/svg">
<path d="M14.2514 8.89984L14.1513 9.16729L9.29261 21.7761H13.1L13.851 19.7299H17.8476L16.7619 16.6466H14.8611L16.1344 13.121L17.3775 16.6466L18.4633 19.7299L19.1874 21.7761H23.0007L18.0394 8.89984H14.2514ZM14.8266 9.73247H17.4666L21.7845 20.9435H19.7795L16.1462 10.6408L13.6652 17.4843H16.0932L16.5894 18.8956H13.2673L12.5188 20.9435H10.5087L14.8266 9.73247ZM52.2721 11.0563C51.1343 11.0572 50.0434 11.5095 49.2389 12.314C48.4344 13.1186 47.982 14.2095 47.9811 15.3472C47.9811 17.7139 49.9063 19.6365 52.2721 19.6365C53.4098 19.6363 54.5008 19.1844 55.3054 18.3801C56.11 17.5758 56.5624 16.4849 56.5631 15.3472C56.5622 14.2095 56.1098 13.1186 55.3053 12.314C54.5008 11.5095 53.4099 11.0572 52.2721 11.0563ZM52.2721 11.8889V11.8914C52.7264 11.89 53.1765 11.9784 53.5965 12.1515C54.0166 12.3246 54.3982 12.5791 54.7195 12.9003C55.0409 13.2214 55.2955 13.603 55.4689 14.0229C55.6422 14.4429 55.7308 14.8929 55.7296 15.3472C55.7309 15.8016 55.6424 16.2518 55.4691 16.6718C55.2958 17.0918 55.0412 17.4735 54.7198 17.7947C54.3985 18.116 54.0168 18.3705 53.5967 18.5437C53.1766 18.7169 52.7265 18.8053 52.2721 18.8039C51.8177 18.8054 51.3675 18.7171 50.9474 18.5439C50.5274 18.3708 50.1457 18.1162 49.8244 17.7949C49.5031 17.4736 49.2485 17.092 49.0754 16.6719C48.9022 16.2518 48.8139 15.8016 48.8154 15.3472C48.814 14.8928 48.9024 14.4427 49.0756 14.0226C49.2488 13.6025 49.5033 13.2208 49.8246 12.8995C50.1458 12.5781 50.5275 12.3235 50.9475 12.1502C51.3676 11.9769 51.8177 11.8876 52.2721 11.8889ZM52.2721 8.70304C48.6085 8.70304 45.6279 11.6837 45.6279 15.3472C45.6279 19.0108 48.6085 21.9897 52.2721 21.9897C55.9348 21.9897 58.9163 19.0108 58.9163 15.3472C58.9163 11.6837 55.9348 8.70304 52.2721 8.70304ZM52.2721 9.53567C53.0354 9.53522 53.7913 9.68524 54.4966 9.97715C55.2019 10.269 55.8427 10.6971 56.3825 11.2368C56.9222 11.7766 57.3503 12.4174 57.6422 13.1227C57.9341 13.828 58.0841 14.5839 58.0836 15.3472C58.0839 16.1102 57.9337 16.8656 57.6416 17.5705C57.3495 18.2753 56.9214 18.9156 56.3816 19.4547C55.8418 19.9939 55.201 20.4213 54.4958 20.7126C53.7907 21.0038 53.035 21.1532 52.2721 21.1521C49.061 21.1521 46.4622 18.5591 46.4622 15.3472C46.4622 12.1353 49.0602 9.53567 52.2721 9.53567ZM101.008 11.0563C99.8707 11.0572 98.7798 11.5095 97.9753 12.314C97.1708 13.1186 96.7184 14.2095 96.7175 15.3472C96.7175 17.7139 98.6426 19.6365 101.008 19.6365C102.146 19.6361 103.237 19.184 104.041 18.3798C104.846 17.5755 105.298 16.4848 105.299 15.3472C105.298 14.2096 104.845 13.1188 104.041 12.3143C103.237 11.5098 102.146 11.0574 101.008 11.0563ZM101.008 11.8906C101.463 11.8892 101.913 11.9777 102.333 12.151C102.753 12.3242 103.134 12.5788 103.456 12.9C103.777 13.2213 104.031 13.6029 104.205 14.0228C104.378 14.4428 104.466 14.8929 104.465 15.3472C104.466 15.8015 104.378 16.2516 104.205 16.6716C104.031 17.0916 103.777 17.4732 103.456 17.7944C103.134 18.1157 102.753 18.3702 102.333 18.5435C101.913 18.7167 101.463 18.8052 101.008 18.8039C100.554 18.8054 100.104 18.7171 99.6838 18.5439C99.2637 18.3708 98.8821 18.1162 98.5608 17.7949C98.2395 17.4736 97.9849 17.092 97.8118 16.6719C97.6386 16.2518 97.5502 15.8016 97.5518 15.3472C97.5504 14.8928 97.6388 14.4427 97.812 14.0226C97.9852 13.6025 98.2397 13.2208 98.561 12.8995C98.8822 12.5781 99.2638 12.3235 99.6839 12.1502C100.104 11.9769 100.554 11.8892 101.008 11.8906ZM101.008 8.7022C97.3449 8.7022 94.3643 11.6837 94.3643 15.3464C94.3643 19.0091 97.3449 21.9906 101.008 21.9906C104.671 21.9906 107.653 19.0108 107.653 15.3464C107.653 11.682 104.671 8.7022 101.008 8.7022ZM101.008 9.53483C101.772 9.53438 102.528 9.6844 103.233 9.9763C103.938 10.2682 104.579 10.6963 105.119 11.236C105.659 11.7757 106.087 12.4166 106.379 13.1219C106.67 13.8272 106.82 14.5831 106.82 15.3464C106.82 16.1094 106.67 16.865 106.378 17.5699C106.086 18.2748 105.658 18.9152 105.118 19.4544C104.578 19.9937 103.938 20.4212 103.232 20.7125C102.527 21.0038 101.771 21.1532 101.008 21.1521C97.7974 21.1521 95.1977 18.5591 95.1977 15.3472C95.1977 12.1353 97.7965 9.53483 101.008 9.53483ZM16.1 0.000840574C7.21441 -4.62035e-07 0 7.21525 0 16.1143C0 25.0124 7.21441 32.2218 16.1126 32.2218C21.0814 32.2218 25.5145 29.9737 28.4724 26.4312C28.6625 26.2378 28.7862 25.9821 28.7862 25.6861V25.6693C28.7643 25.0789 28.2899 24.5927 27.697 24.5927C27.3396 24.5927 27.0057 24.766 26.808 25.0503L26.8375 25.0107C26.8375 25.0107 26.2605 25.6667 25.9712 25.9695C24.7009 27.2425 23.1968 28.2583 21.5415 28.9611C19.8247 29.69 17.9777 30.0623 16.1126 30.0553C14.2476 30.0561 12.4013 29.6844 10.682 28.9619H10.6786C9.02388 28.262 7.52129 27.2464 6.25479 25.972C4.98201 24.7014 3.96652 23.197 3.26406 21.5415C2.53567 19.8252 2.16369 17.9787 2.17071 16.1143C2.17071 14.2253 2.54413 12.4028 3.26406 10.6803C3.95324 9.02294 4.96433 7.51873 6.23881 6.25478L6.24217 6.24974C7.51241 4.97773 9.01621 3.96282 10.6711 3.2607C12.3882 2.53348 14.2352 2.16292 16.1 2.17155C17.9889 2.17155 19.8081 2.54413 21.5305 3.26406V3.2607C22.6685 3.74429 23.7105 4.38768 24.676 5.14462C24.6575 5.25395 24.6171 5.34899 24.6171 5.46842C24.6171 6.59204 25.5372 7.51214 26.6617 7.51214C27.7862 7.51214 28.7071 6.59204 28.7071 5.46842C28.7051 4.92688 28.4887 4.40818 28.1052 4.0258C27.7217 3.64342 27.2024 3.4285 26.6609 3.42806C26.4758 3.42806 26.2975 3.4903 26.1159 3.54496C23.3615 1.34734 19.9006 0 16.0991 0L16.1 0.000840574ZM16.1 0.835149C19.6306 0.830297 23.0526 2.05553 25.7778 4.30022L25.988 4.47011L26.2302 4.35068C26.3446 4.29349 26.4859 4.26153 26.6617 4.26153C27.3362 4.26153 27.8728 4.79559 27.8728 5.46926C27.8738 5.62858 27.8432 5.78652 27.7826 5.93391C27.7221 6.0813 27.633 6.21521 27.5203 6.32787C27.4076 6.44053 27.2737 6.5297 27.1263 6.59021C26.979 6.65072 26.821 6.68135 26.6617 6.68035C26.4682 6.68138 26.2773 6.63564 26.1053 6.54702C25.9332 6.4584 25.7852 6.32952 25.6737 6.17136C25.5622 6.0132 25.4906 5.83044 25.4649 5.63864C25.4392 5.44684 25.4603 5.25168 25.5263 5.06977L25.6188 4.79895L25.3917 4.61813C24.3182 3.74888 23.1284 3.03408 21.8569 2.49451H21.8518C20.0303 1.73 18.0745 1.33684 16.0991 1.33809C14.1222 1.32995 12.1642 1.72338 10.3439 2.49451C8.59043 3.24015 6.99706 4.31668 5.65092 5.66522C4.29928 7.00697 3.22629 8.60274 2.49367 10.3607C1.72892 12.1827 1.33575 14.1391 1.33725 16.1151C1.33725 18.1117 1.7174 20.0469 2.49367 21.8711C3.23948 23.624 4.316 25.2168 5.66438 26.5624C7.00797 27.913 8.60205 28.9886 10.3574 29.7289V29.734C12.1798 30.4984 14.1364 30.8915 16.1126 30.8904C18.09 30.8969 20.0482 30.502 21.8686 29.7298C23.622 28.9854 25.2154 27.91 26.5616 26.5624L26.57 26.554C26.8739 26.229 27.1728 25.8992 27.4666 25.565L27.4834 25.5482L27.496 25.5271C27.5185 25.495 27.5487 25.4691 27.5838 25.4516C27.6189 25.4341 27.6578 25.4257 27.697 25.4271C27.8148 25.4271 27.9392 25.5482 27.9476 25.6953C27.9413 25.7545 27.9169 25.8103 27.8778 25.8551L27.8509 25.8787C25.0444 29.2512 20.8392 31.3883 16.1126 31.3883C7.66436 31.3875 0.837672 24.5633 0.837672 16.1143C0.837672 7.6652 7.6652 0.834305 16.1 0.834305V0.835149ZM69.5747 8.899L66.1601 8.90068V21.777H74.6647V18.6819H69.5747V8.899ZM66.997 9.73331H68.7413V19.5146H73.8304V20.9443H66.997V9.73331ZM84.4602 8.899L81.0372 8.90068V21.777H89.551V18.6819H84.4602V8.899ZM81.8715 9.73331H83.6259V19.5146H88.7159V20.9443H81.8715V9.73331ZM32.0494 11.2547V15.2724H35.5229C36.6103 15.2724 37.4572 14.3186 37.4572 13.2564C37.4572 12.1933 36.6078 11.2547 35.5229 11.2547H32.0494ZM32.882 12.0891H35.5229C36.1032 12.0891 36.6246 12.6525 36.6246 13.2564C36.6246 13.8594 36.099 14.4381 35.5229 14.4381H32.882V12.0891ZM29.4859 8.90068V21.777H32.8837V17.6264H35.522C37.8988 17.6264 39.813 15.6248 39.813 13.2564C39.813 10.9015 37.8988 8.89984 35.522 8.89984L29.4859 8.90068ZM30.3185 9.73331H35.522C37.4278 9.73331 38.9804 11.354 38.9804 13.2573C38.9804 15.1731 37.4286 16.7938 35.522 16.7938H32.0494V20.9443H30.3202L30.3185 9.73331Z" fill="white"/>
</svg>
