<svg width="472" height="156" viewBox="0 0 472 156" fill="none" xmlns="http://www.w3.org/2000/svg">
<path d="M450 4H22C12.0589 4 4 12.0589 4 22V134C4 143.941 12.0589 152 22 152H450C459.941 152 468 143.941 468 134V22C468 12.0589 459.941 4 450 4Z" fill="black" stroke="url(#paint0_linear_10_14)" stroke-width="8"/>
<path d="M136.362 36V59.7971H129.472V47.6064L107.793 69L102.922 64.1927L124.601 42.7991H112.247V36H136.362ZM76.115 36V42.7991H63.762L85.441 64.1927L80.57 69L58.89 47.6064V59.7971H52.0005V36H76.115ZM107.793 86.25L129.472 107.643V95.4527H136.362V119.25H112.247V112.451H124.601L102.922 91.0573L107.793 86.25ZM103.18 63.75L108.242 68.4692L63.857 112.376H76.311V119.25H52.0005V95.1919H58.946V107.516L103.18 63.75Z" fill="white"/>
<path fill-rule="evenodd" clip-rule="evenodd" d="M179.2 80.9176C179.2 77.1376 179.964 73.7851 181.492 70.8601C183.019 67.9351 185.106 65.6851 187.75 64.1101C190.395 62.5351 193.336 61.7476 196.574 61.7476C199.037 61.7476 201.385 62.2763 203.62 63.3338C205.854 64.3913 207.632 65.7976 208.955 67.5526V49.8001H218.668V99.7501H208.955V94.2151C207.769 96.0601 206.105 97.5451 203.962 98.6701C201.818 99.7951 199.333 100.358 196.506 100.358C193.314 100.358 190.395 99.5476 187.75 97.9276C185.106 96.3076 183.019 94.0238 181.492 91.0763C179.964 88.1288 179.2 84.7426 179.2 80.9176ZM209.023 81.0526C209.023 78.7576 208.567 76.7888 207.655 75.1463C206.743 73.5038 205.512 72.2438 203.962 71.3663C202.411 70.4888 200.747 70.0501 198.968 70.0501C197.19 70.0501 195.548 70.4776 194.043 71.3326C192.538 72.1876 191.319 73.4363 190.384 75.0788C189.449 76.7213 188.982 78.6676 188.982 80.9176C188.982 83.1676 189.449 85.1363 190.384 86.8238C191.319 88.5113 192.55 89.8051 194.078 90.7051C195.605 91.6051 197.235 92.0551 198.968 92.0551C200.747 92.0551 202.411 91.6163 203.962 90.7388C205.512 89.8613 206.743 88.6013 207.655 86.9588C208.567 85.3163 209.023 83.3476 209.023 81.0526ZM249.881 61.8151C254.395 61.8151 258.043 63.2213 260.825 66.0338C263.607 68.8463 264.997 72.7726 264.997 77.8126V99.7501H255.421V79.0951C255.421 76.1251 254.669 73.8413 253.164 72.2438C251.659 70.6463 249.607 69.8476 247.008 69.8476C244.363 69.8476 242.277 70.6463 240.749 72.2438C239.221 73.8413 238.458 76.1251 238.458 79.0951V99.7501H228.881V62.3551H238.458V67.0126C239.734 65.3926 241.365 64.1213 243.348 63.1988C245.332 62.2763 247.509 61.8151 249.881 61.8151ZM272.475 80.9176C272.475 77.1376 273.239 73.7851 274.766 70.8601C276.294 67.9351 278.38 65.6851 281.025 64.1101C283.67 62.5351 286.611 61.7476 289.849 61.7476C292.311 61.7476 294.66 62.2763 296.894 63.3338C299.129 64.3913 300.907 65.7976 302.23 67.5526V49.8001H311.943V99.7501H302.23V94.2151C301.044 96.0601 299.38 97.5451 297.236 98.6701C295.093 99.7951 292.608 100.358 289.781 100.358C286.588 100.358 283.67 99.5476 281.025 97.9276C278.38 96.3076 276.294 94.0238 274.766 91.0763C273.239 88.1288 272.475 84.7426 272.475 80.9176ZM302.298 81.0526C302.298 78.7576 301.842 76.7888 300.93 75.1463C300.018 73.5038 298.787 72.2438 297.236 71.3663C295.686 70.4888 294.021 70.0501 292.243 70.0501C290.465 70.0501 288.823 70.4776 287.318 71.3326C285.813 72.1876 284.593 73.4363 283.659 75.0788C282.724 76.7213 282.256 78.6676 282.256 80.9176C282.256 83.1676 282.724 85.1363 283.659 86.8238C284.593 88.5113 285.825 89.8051 287.352 90.7051C288.88 91.6051 290.51 92.0551 292.243 92.0551C294.021 92.0551 295.686 91.6163 297.236 90.7388C298.787 89.8613 300.018 88.6013 300.93 86.9588C301.842 85.3163 302.298 83.3476 302.298 81.0526ZM361.714 99.7501L348.855 83.8201V99.7501H339.278V49.8001H348.855V78.2176L361.577 62.3551H374.026L357.336 81.1201L374.163 99.7501H361.714ZM384.924 57.9001C383.237 57.9001 381.834 57.3713 380.717 56.3138C379.6 55.2563 379.041 53.9401 379.041 52.3651C379.041 50.7901 379.6 49.4738 380.717 48.4163C381.834 47.3588 383.237 46.8301 384.924 46.8301C386.611 46.8301 388.013 47.3588 389.131 48.4163C390.248 49.4738 390.806 50.7901 390.806 52.3651C390.806 53.9401 390.248 55.2563 389.131 56.3138C388.013 57.3713 386.611 57.9001 384.924 57.9001ZM389.644 62.3551V99.7501H380.067V62.3551H389.644ZM411.075 70.1176V88.2076C411.075 89.4676 411.383 90.3788 411.998 90.9413C412.614 91.5038 413.652 91.7851 415.111 91.7851H419.557V99.7501H413.538C405.466 99.7501 401.43 95.8801 401.43 88.1401V70.1176H396.916V62.3551H401.43V53.1076H411.075V62.3551H419.557V70.1176H411.075Z" fill="white"/>
<defs>
<linearGradient id="paint0_linear_10_14" x1="-42" y1="0" x2="-41" y2="0" gradientUnits="userSpaceOnUse">
<stop stop-color="#5F6AF2"/>
<stop offset="1" stop-color="#A65FF2"/>
</linearGradient>
</defs>
</svg>
