<svg width="125" height="35" viewBox="0 0 125 35" fill="none" xmlns="http://www.w3.org/2000/svg">
<path fill-rule="evenodd" clip-rule="evenodd" d="M47.7796 6.95873C52.7784 6.95873 56.3833 10.8619 56.3833 16.4607C56.3833 22.0516 52.7784 25.9548 47.7796 25.9548C42.7888 25.9548 39.1839 22.0516 39.1839 16.4607C39.1839 10.8619 42.7888 6.95873 47.7796 6.95873ZM47.7796 9.86212C44.6634 9.86212 42.4764 12.4536 42.4764 16.4607C42.4764 20.4599 44.6634 23.0594 47.7796 23.0594C50.8958 23.0594 53.0828 20.4599 53.0828 16.4607C53.0828 12.4536 50.8958 9.86212 47.7796 9.86212ZM61.7746 24.2591V30.2979H58.6824V12.1976H61.7746V13.6373C62.6238 12.6295 63.9055 11.9417 65.6599 11.9417C69.4411 11.9417 71.604 15.125 71.604 18.9482C71.604 22.7714 69.4411 25.9548 65.6599 25.9548C63.9055 25.9548 62.6238 25.2669 61.7746 24.2591ZM61.6945 19.3561C61.6945 21.8516 63.1365 23.2593 65.0431 23.2593C67.2781 23.2593 68.4878 21.5157 68.4878 18.9482C68.4878 16.3808 67.2781 14.6371 65.0431 14.6371C63.1365 14.6371 61.6945 16.0208 61.6945 18.5643V19.3561ZM73.3984 18.9402C73.3984 14.989 75.9219 11.9337 79.8392 11.9337C83.7485 11.9337 85.8394 14.8851 85.8394 18.5883V19.6121H76.3625C76.5948 21.9236 77.9807 23.3313 79.9674 23.3313C81.4894 23.3313 82.6991 22.5635 83.1076 21.1798L85.7592 22.1795C84.8059 24.5391 82.667 25.9548 79.9674 25.9548C76.1061 25.9548 73.3984 23.0994 73.3984 18.9402ZM76.5147 17.3006H82.7231C82.6991 15.8129 81.7698 14.5251 79.8152 14.5251C78.213 14.5251 76.9793 15.4769 76.5147 17.3006ZM88.1545 12.1896H91.2467V13.6293C92.0158 12.7335 93.2254 11.9337 94.9798 11.9337C97.8076 11.9337 99.5059 13.8853 99.5059 16.7887V25.6668H96.4217V17.6845C96.4217 16.0208 95.7488 14.8131 94.0505 14.8131C92.6566 14.8131 91.2467 15.8369 91.2467 17.7645V25.6668H88.1545V12.1896ZM112.291 7.23867L119.293 25.6748H115.968L114.374 21.4597H106.395L104.825 25.6748H101.549L108.558 7.23867H112.291ZM107.477 18.5883H113.293L110.361 10.8859L107.477 18.5883ZM121.296 7.29466H124.596V25.7228H121.296V7.29466ZM31.6376 14.0053C34.1531 16.7887 34.5857 20.8758 32.7031 24.1231C31.4854 26.2587 29.3946 27.7624 26.9833 28.2583C25.8298 31.8255 22.4892 34.241 18.7321 34.233C16.2647 34.249 13.9176 33.2012 12.2833 31.3616C8.60633 32.1535 4.84121 30.4818 2.96666 27.2265C1.71696 25.1069 1.4526 22.5555 2.22966 20.22C-0.285759 17.4445 -0.718347 13.3494 1.16421 10.1101C2.38988 7.97451 4.47271 6.46283 6.88399 5.97493C8.03756 2.40768 11.3781 -0.0078178 15.1352 0.000180529C17.6026 -0.0158161 19.9498 1.03197 21.584 2.87158C25.261 2.07975 29.0261 3.7514 30.9007 7.00672C32.1423 9.12627 32.4147 11.6777 31.6376 14.0133V14.0053ZM25.1568 25.5708V17.6125C25.1568 17.5805 25.1328 17.5485 25.1008 17.5405L22.2168 15.8769V25.4829C22.2168 25.8828 22.0005 26.2587 21.6481 26.4507L14.8148 30.3938C14.7587 30.4258 14.6626 30.4738 14.6145 30.5058C15.7681 31.4656 17.2261 31.9935 18.7321 31.9855C22.2809 31.9855 25.1568 29.1141 25.1568 25.5708ZM4.91331 26.0987C6.69173 29.1701 10.6251 30.2179 13.7013 28.4502L20.6067 24.4751C20.6387 24.4511 20.6547 24.4191 20.6467 24.3871V21.0598L12.3074 25.8588C11.9549 26.0667 11.5303 26.0667 11.1858 25.8588L4.34454 21.9236C4.28045 21.8916 4.19233 21.8356 4.14426 21.8036C3.88792 23.2833 4.16029 24.803 4.91331 26.0987ZM3.11086 11.2218C1.34045 14.2932 2.39789 18.2124 5.46606 19.988L12.3715 23.9632C12.4035 23.9792 12.4436 23.9792 12.4756 23.9552L15.3595 22.2915L7.02018 17.4925C6.6677 17.2926 6.4514 16.9166 6.45941 16.5167V8.64637V8.40642C5.0495 8.92632 3.86388 9.91811 3.11086 11.2218ZM26.8471 16.7327C27.1916 16.9326 27.4079 17.3006 27.4079 17.7005V25.8108C28.8178 25.2909 30.0034 24.2991 30.7484 22.9954C32.5269 19.932 31.4774 16.0048 28.4012 14.2292L21.4879 10.254C21.4558 10.238 21.4158 10.246 21.3917 10.262L18.4998 11.9257L26.8471 16.7327ZM29.723 12.4136C29.9794 10.9419 29.707 9.42221 28.954 8.12648C27.1836 5.05512 23.2502 3.99935 20.1741 5.77497L13.2607 9.75014C13.2366 9.76614 13.2206 9.79813 13.2206 9.83813V13.1654L21.568 8.35843C21.9124 8.15848 22.345 8.15848 22.6895 8.35843L29.5228 12.2936C29.5869 12.3256 29.675 12.3816 29.723 12.4136ZM11.6505 18.3404L11.6585 8.73436C11.6505 8.33444 11.8668 7.96652 12.2192 7.76656L19.0525 3.83138C19.1086 3.79139 19.2047 3.7434 19.2528 3.7194C18.0992 2.7596 16.6413 2.23171 15.1432 2.23171C11.5864 2.23171 8.71047 5.10311 8.70246 8.64637V16.6047C8.71047 16.6367 8.7265 16.6687 8.75854 16.6847L11.6505 18.3404ZM13.2206 19.2522L16.9377 21.3877L20.6547 19.2522V14.9731L16.9377 12.8295L13.2206 14.9731V19.2522Z" fill="white"/>
</svg>
