<svg width="1200" height="630" viewBox="0 0 1200 630" fill="none" xmlns="http://www.w3.org/2000/svg">
<rect width="1200" height="630" fill="black"/>
<path d="M149.92 316.003V296.188C167.711 296.188 180.123 292.459 187.154 285.001C194.292 277.544 197.86 265.08 197.86 247.608V196.472C197.86 181.77 199.245 169.039 202.015 158.279C204.892 147.519 209.526 138.624 215.918 131.592C222.31 124.561 230.833 119.341 241.486 115.932C252.14 112.523 265.297 110.818 280.957 110.818V142.139C268.599 142.139 258.851 144.057 251.713 147.892C244.682 151.727 239.675 157.693 236.692 165.79C233.816 173.78 232.377 184.007 232.377 196.472V260.392C232.377 268.702 231.259 276.266 229.022 283.084C226.891 289.902 222.896 295.761 217.037 300.662C211.177 305.562 202.814 309.344 191.948 312.008C181.188 314.671 167.179 316.003 149.92 316.003ZM280.957 519.909C265.297 519.909 252.14 518.205 241.486 514.795C230.833 511.386 222.31 506.166 215.918 499.135C209.526 492.104 204.892 483.208 202.015 472.448C199.245 461.688 197.86 448.957 197.86 434.256V383.119C197.86 365.648 194.292 353.183 187.154 345.726C180.123 338.268 167.711 334.54 149.92 334.54V314.724C167.179 314.724 181.188 316.056 191.948 318.719C202.814 321.383 211.177 325.165 217.037 330.065C222.896 334.966 226.891 340.825 229.022 347.643C231.259 354.462 232.377 362.026 232.377 370.335V434.256C232.377 446.72 233.816 456.947 236.692 464.938C239.675 472.928 244.682 478.84 251.713 482.675C258.851 486.617 268.599 488.588 280.957 488.588V519.909ZM149.92 334.54V296.188H187.633V334.54H149.92ZM436.963 479H335.969V151.727H441.437C473.184 151.727 500.351 158.279 522.936 171.383C545.521 184.38 562.833 203.077 574.871 227.473C586.91 251.763 592.929 280.847 592.929 314.724C592.929 348.815 586.856 378.165 574.711 402.775C562.567 427.278 544.882 446.134 521.658 459.344C498.433 472.448 470.202 479 436.963 479ZM375.599 443.844H434.406C461.466 443.844 483.891 438.624 501.682 428.183C519.474 417.743 532.737 402.881 541.473 383.599C550.209 364.316 554.577 341.358 554.577 314.724C554.577 288.304 550.262 265.559 541.633 246.489C533.003 227.313 520.113 212.611 502.961 202.384C485.809 192.05 464.449 186.884 438.881 186.884H375.599V443.844ZM615.9 151.727H661.284L752.051 304.497H755.886L846.653 151.727H892.037L773.784 344.128V479H734.153V344.128L615.9 151.727ZM1050.04 314.724V334.54C1032.25 334.54 1019.78 338.268 1012.65 345.726C1005.62 353.183 1002.1 365.648 1002.1 383.119V434.256C1002.1 448.957 1000.66 461.688 997.785 472.448C995.015 483.208 990.434 492.104 984.042 499.135C977.65 506.166 969.127 511.386 958.474 514.795C947.82 518.205 934.664 519.909 919.003 519.909V488.588C931.361 488.588 941.056 486.617 948.087 482.675C955.225 478.84 960.232 472.928 963.108 464.938C966.091 456.947 967.583 446.72 967.583 434.256V370.335C967.583 362.026 968.648 354.462 970.779 347.643C973.016 340.825 977.064 334.966 982.923 330.065C988.783 325.165 997.093 321.383 1007.85 318.719C1018.72 316.056 1032.78 314.724 1050.04 314.724ZM919.003 110.818C934.664 110.818 947.82 112.523 958.474 115.932C969.127 119.341 977.65 124.561 984.042 131.592C990.434 138.624 995.015 147.519 997.785 158.279C1000.66 169.039 1002.1 181.77 1002.1 196.472V247.608C1002.1 265.08 1005.62 277.544 1012.65 285.001C1019.78 292.459 1032.25 296.188 1050.04 296.188V316.003C1032.78 316.003 1018.72 314.671 1007.85 312.008C997.093 309.344 988.783 305.562 982.923 300.662C977.064 295.761 973.016 289.902 970.779 283.084C968.648 276.266 967.583 268.702 967.583 260.392V196.472C967.583 184.007 966.091 173.78 963.108 165.79C960.232 157.693 955.225 151.727 948.087 147.892C941.056 144.057 931.361 142.139 919.003 142.139V110.818ZM1050.04 296.188V334.54H1012.33V296.188H1050.04Z" fill="white"/>
</svg>
