<svg width="85" height="85" viewBox="0 0 85 85" fill="none" xmlns="http://www.w3.org/2000/svg">
<path d="M82.3665 41.7478C82.3665 36.643 78.4989 32.3473 73.3067 31.1215L84.9355 0H27.3058L38.9611 31.2197C33.9322 32.5444 30.2251 36.7651 30.2251 41.7736C30.2251 45.4542 32.2545 48.718 35.3371 50.7302C34.1213 52.301 32.7137 53.7497 31.119 55.1235C28.1174 57.6772 24.7887 59.6396 21.1931 60.941C17.948 58.9527 16.5424 55.4427 17.8126 52.3003C22.7613 50.9266 26.3601 46.7297 26.3601 41.7969C26.3601 35.7358 20.9237 30.8255 14.2688 30.8255C7.5887 30.8255 2.15556 35.759 2.15556 41.8221C2.15556 44.8171 3.50604 47.5646 5.67081 49.527C5.48101 49.8721 5.29254 50.2138 5.10274 50.5822C3.29103 53.9707 1.2351 57.7993 0.449363 62.095C-1.11879 70.6832 1.45012 77.5818 7.64311 81.4833C11.1325 83.6687 14.9742 84.773 19.112 84.773C26.2221 84.773 33.4444 81.5325 40.4205 78.3901C45.3977 76.1583 50.5355 73.8249 55.593 72.6974C57.4598 72.28 59.4063 72.0337 61.4622 71.7643C65.6251 71.2248 69.9261 70.66 73.7938 68.6226C78.3098 66.2428 81.3923 62.2656 82.2862 57.7011C82.9598 54.1904 82.2862 50.6572 80.5542 47.5646C81.7373 45.8559 82.3701 43.8261 82.3665 41.7478ZM77.094 41.7478C77.094 45.1589 74.0373 47.9329 70.2785 47.9329C66.5197 47.9329 63.463 45.1589 63.463 41.7478C63.463 40.6428 63.7875 39.5883 64.3549 38.6804C64.5706 38.3353 64.8427 37.9935 65.1115 37.6982C65.3964 37.3945 65.714 37.1232 66.0585 36.8892L66.087 36.8633C66.302 36.716 66.5456 36.568 66.7891 36.4227C66.7891 36.4227 66.8157 36.4227 66.8157 36.3968C66.9239 36.3477 67.0327 36.2747 67.1422 36.2256C67.1681 36.2256 67.194 36.1997 67.2218 36.1997C67.3313 36.1533 67.466 36.1041 67.6001 36.0544C67.7281 36.0097 67.8545 35.9605 67.979 35.907C68.0056 35.907 68.0335 35.8805 68.0593 35.8805C68.1682 35.8579 68.277 35.8082 68.3839 35.7849C68.4124 35.7849 68.4668 35.759 68.4927 35.759C68.6274 35.7358 68.7362 35.7099 68.871 35.686H68.8995L69.3043 35.6111C69.3322 35.6111 69.3839 35.6111 69.4125 35.5878C69.5213 35.5878 69.6282 35.5619 69.737 35.5619H69.8717C70.0064 35.5619 70.1438 35.5387 70.3044 35.5387H70.6568C70.763 35.5387 70.8466 35.5387 70.9528 35.5619H71.0072C71.2249 35.5885 71.4399 35.6111 71.6575 35.6608C74.7401 36.2488 77.094 38.7534 77.094 41.7478ZM34.8493 4.90764H77.3893L67.6266 31.0465C67.2218 31.1215 66.815 31.243 66.4109 31.3651L56.1352 12.3451L45.8304 31.2423C45.4236 31.1208 44.9909 31.0459 44.5602 30.9729L34.8493 4.90764ZM54.1855 39.6108C53.6725 37.3033 52.3738 35.2427 50.5355 33.721L56.1352 23.4631L61.786 33.9413C60.109 35.4631 58.8926 37.4022 58.4055 39.6108H54.1855ZM40.6381 35.7352C40.7729 35.7086 40.8817 35.686 41.0164 35.6602H41.0967C41.2055 35.6369 41.315 35.6369 41.4212 35.6104H41.5301C41.6389 35.6104 41.7192 35.5872 41.828 35.5872H42.8832C42.9894 35.5872 43.0723 35.6104 43.1526 35.6104C43.2071 35.6104 43.2329 35.6104 43.2873 35.6369C43.3962 35.6602 43.4765 35.6602 43.586 35.686C43.6112 35.686 43.6397 35.686 43.6942 35.7093C43.8295 35.7352 43.9643 35.7584 44.0724 35.7843H44.099C44.2078 35.8075 44.3166 35.8307 44.4228 35.8805C44.4514 35.8805 44.4772 35.9064 44.5317 35.9064C44.612 35.9296 44.7208 35.9555 44.8011 36.0046C44.8296 36.0046 44.8555 36.0278 44.884 36.0278C44.9902 36.0776 45.0997 36.1035 45.2086 36.1526H45.2344C45.3692 36.199 45.478 36.2482 45.5868 36.3238H45.6134C45.7215 36.3729 45.8304 36.4453 45.9392 36.4944C45.9658 36.4944 45.9658 36.5209 45.991 36.5209C46.0998 36.5674 46.1808 36.6424 46.2896 36.6915L46.3181 36.7147C46.642 36.9357 46.94 37.1819 47.2353 37.4281L47.2638 37.4513C47.5339 37.7208 47.8034 38.0161 48.021 38.3353C48.7238 39.3175 49.1306 40.4716 49.1306 41.7232C49.1306 45.135 46.0739 47.9064 42.3151 47.9064C38.5563 47.9064 35.4997 45.135 35.4997 41.7232C35.4718 38.851 37.6624 36.422 40.6381 35.7352ZM14.0252 35.5613C17.7847 35.5613 20.8407 38.3353 20.8407 41.7464C20.8407 45.1582 17.7847 47.9316 14.0252 47.9316C10.2664 47.9316 7.20976 45.1582 7.20976 41.7464C7.20976 38.3353 10.2664 35.5613 14.0252 35.5613ZM76.9307 56.8423C76.3368 59.9813 74.1979 62.7321 71.0616 64.3753C68.1138 65.9229 64.4897 66.4127 60.6765 66.9031C58.5953 67.1726 56.4047 67.4679 54.2943 67.9344C48.6694 69.1867 43.2615 71.6415 38.0148 73.9955C31.3082 77.0157 24.9778 79.8621 19.112 79.8621C16.0553 79.8621 13.3231 79.077 10.7283 77.4331C4.77889 73.7028 5.0742 66.7087 5.77964 62.8795C6.42734 59.2945 8.23972 55.9325 9.97113 52.7178C10.0773 52.5207 10.1603 52.3494 10.2664 52.1523C10.863 52.3494 11.4849 52.4974 12.1332 52.5957C11.1066 57.7986 14.0252 63.1728 19.7053 65.8247L20.7339 66.3145L21.8415 65.9462C26.5752 64.4244 30.9558 61.9464 34.8234 58.6328C37.0141 56.7666 38.8808 54.7552 40.449 52.5698C41.0708 52.6687 41.6933 52.6945 42.3151 52.6945C47.9407 52.6945 52.6717 49.1839 54.0249 44.4713H58.5668C59.9199 49.2078 64.6529 52.6939 70.2785 52.6939C72.5236 52.6939 74.6054 52.1298 76.3886 51.1728C77.094 53.0131 77.309 54.9264 76.9307 56.8423Z" fill="#642B3C"/>
</svg>
