<svg width="106" height="106" viewBox="0 0 106 106" fill="none" xmlns="http://www.w3.org/2000/svg">
<path d="M0 0V105.13H105.13V0H0ZM55.6085 89.5813C54.0568 92.7344 51.0946 94.8058 47.6624 95.8058C42.3882 97.0169 37.3437 96.3264 33.591 94.0741C31.0797 92.5333 29.1184 90.1616 27.787 87.4291L35.7937 82.5259C35.8635 82.5553 36.0737 82.9354 36.3546 83.4266C37.3757 85.1373 38.2562 86.3484 39.9871 87.1987C41.6876 87.779 45.421 88.1499 46.8625 85.1575C47.7431 83.6352 47.463 78.742 47.463 73.3283C47.4622 64.8212 47.5017 56.3494 47.5017 47.9391H57.3494C57.3494 57.1905 57.3999 65.9524 57.3494 74.9801C57.3705 80.5141 57.8507 85.4476 55.6085 89.5813ZM96.461 86.7992C93.038 98.5081 73.9532 98.8882 66.3267 91.1524C64.7152 89.3315 63.7051 88.3803 62.7438 86.2786C66.7968 83.9472 66.7968 83.9472 70.7404 81.6655C72.8825 84.9581 74.8632 86.7689 78.4266 87.5098C83.2609 88.1002 88.1246 86.4392 87.0338 81.3047C85.9127 77.1113 77.1348 76.0911 71.1609 71.6067C65.0962 67.5335 63.6749 57.6362 68.6588 51.9811C70.3199 49.8894 73.1525 48.3285 76.1247 47.5783L79.2265 47.1771C85.1818 47.0568 88.9043 48.6296 91.6368 51.6808C92.3971 52.4512 93.0178 53.2822 94.1784 55.0828C91.006 57.1047 91.0161 57.0853 86.472 60.0273C85.5014 57.9365 83.8909 56.6245 82.1886 56.0542C79.5461 55.2536 76.2139 56.124 75.5225 58.9163C75.2828 59.7767 75.3325 60.5773 75.7135 61.9987C76.7841 64.4402 80.377 65.5016 83.5999 66.9827C92.8773 70.7455 96.0102 74.7799 96.7806 79.5822C97.5224 83.7168 96.6014 86.3988 96.461 86.7992Z" fill="#F0DB4F"/>
</svg>
