<svg width="108" height="23" viewBox="0 0 108 23" fill="none" xmlns="http://www.w3.org/2000/svg">
<path d="M0 0V22.3352H4.5249V6.19693L17.5176 22.3453H41.2456V18.0761H26.3302V13.2366H38.3254V8.96738H26.3302V4.27679H41.2464V0.00672799H21.8045V4.27595H21.8053V20.5816L5.23139 0H0ZM71.0107 0.00841239V4.27679H78.5466V22.3444H83.0715V4.27679H90.4534V0.00672799L71.0107 0.00841239ZM44.418 0.0168216L62.3881 22.3537H68.3033L59.3174 11.1928L68.2907 0.031962L62.3881 0.0420523L56.3645 7.52328L50.3189 0.0176622H50.1196L44.418 0.0168216ZM0.834331 0.834332H4.83105L21.4815 21.5101H17.9163L3.69057 3.8285V21.5H0.834331V0.834332ZM22.6388 0.842741H40.4112V3.44161H25.4959V9.80255H37.4911V12.4014H25.4959V18.9112H40.4112V21.5101H22.6396V3.44246L22.6388 0.842741ZM71.845 0.842741H89.6183V3.44161H82.2363V21.5101H79.3809V3.44246H71.845V0.842741ZM46.1607 0.851994H49.9194L56.3645 8.85552L62.7876 0.874703L66.5446 0.869656L58.2467 11.1928L66.5598 21.5185H62.7876L46.1607 0.851994ZM52.6562 12.1197L44.4037 22.3688H50.3189L55.6109 15.7917L55.4006 15.531L52.6562 12.1197ZM103.836 12.1996C103.154 12.1996 102.524 12.3173 101.959 12.5646C101.401 12.8085 100.937 13.1634 100.601 13.6226C100.256 14.0972 100.073 14.6708 100.081 15.2577C100.081 15.9936 100.351 16.6496 100.872 17.1122C101.369 17.5571 102.025 17.8692 102.82 18.071L103.857 18.3317C104.164 18.4083 104.428 18.4957 104.648 18.5891C104.849 18.6749 104.984 18.7724 105.072 18.87C105.136 18.9423 105.169 19.0239 105.172 19.1711C105.178 19.319 105.128 19.4637 105.033 19.5773L105.03 19.5807L105.028 19.5816C104.927 19.7077 104.784 19.8145 104.568 19.8995V19.8978C104.314 19.9907 104.045 20.0355 103.774 20.0298C103.476 20.0298 103.218 19.9861 102.992 19.9045L102.99 19.9028C102.798 19.8366 102.627 19.7205 102.495 19.5664C102.372 19.4113 102.303 19.2208 102.296 19.0231L102.267 18.6362H99.8254L99.8422 19.0685C99.8666 19.7271 100.047 20.3192 100.391 20.8061C100.73 21.2872 101.208 21.6548 101.791 21.8953C102.371 22.1375 103.041 22.2519 103.788 22.2519C104.561 22.2519 105.238 22.1342 105.815 21.8835H105.817V21.8818C106.39 21.6321 106.854 21.2712 107.175 20.8053C107.496 20.3343 107.656 19.7809 107.656 19.1846C107.656 18.7413 107.568 18.3326 107.386 17.9785C107.214 17.6404 106.973 17.3424 106.677 17.1038C106.386 16.8702 106.064 16.6794 105.719 16.5369C105.378 16.3927 105.025 16.2788 104.665 16.1963L104.658 16.1946L103.81 15.986C103.636 15.944 103.465 15.8934 103.296 15.8346H103.294C103.15 15.7857 103.012 15.7203 102.883 15.6395L102.878 15.6378L102.874 15.6345C102.784 15.5816 102.707 15.5078 102.651 15.4191V15.4175L102.65 15.4158C102.604 15.3392 102.582 15.2509 102.586 15.1618C102.584 15.0344 102.625 14.9101 102.702 14.8085C102.777 14.7051 102.9 14.6092 103.093 14.5276C103.275 14.4519 103.515 14.4074 103.815 14.4074C104.242 14.4074 104.546 14.4965 104.768 14.6513V14.6529C104.984 14.8026 105.083 14.9658 105.112 15.245L105.152 15.6193H107.536L107.529 15.1954C107.526 14.6305 107.349 14.0802 107.022 13.6193C106.7 13.1668 106.252 12.8119 105.707 12.5663H105.705C105.154 12.3165 104.529 12.1996 103.836 12.1996ZM96.7462 12.3207V19.0374C96.7437 19.3082 96.6983 19.5185 96.6335 19.6648C96.5849 19.7891 96.4969 19.894 96.3829 19.9634L96.3812 19.9651H96.3795C96.2753 20.0282 96.1314 20.0694 95.9262 20.0694C95.7378 20.0694 95.5898 20.0349 95.467 19.9735C95.3564 19.9207 95.2643 19.8357 95.2029 19.7296C95.1317 19.6032 95.0962 19.4599 95.1003 19.3149L95.0969 18.9028H92.6276V19.3191C92.6276 19.9331 92.7672 20.484 93.0725 20.9348C93.3627 21.368 93.7681 21.7044 94.2584 21.9205C94.7412 22.1333 95.2794 22.2401 95.8623 22.2401C96.4998 22.2401 97.0801 22.114 97.5839 21.8591H97.5856C98.0838 21.6089 98.5 21.2214 98.785 20.7422V20.7405C99.0718 20.2527 99.2131 19.6791 99.2156 19.0416V12.3198L96.7462 12.3207ZM103.836 13.0347C104.435 13.0347 104.938 13.1331 105.362 13.3266L105.364 13.3274C105.794 13.5209 106.112 13.7782 106.344 14.1037C106.486 14.3022 106.503 14.552 106.561 14.785H105.725C105.607 14.4822 105.517 14.1542 105.247 13.9666C104.853 13.6933 104.364 13.5722 103.815 13.5722C103.431 13.5722 103.082 13.6294 102.774 13.7572H102.772L102.771 13.7581C102.474 13.8834 102.216 14.0625 102.032 14.3089V14.3106C101.851 14.5545 101.757 14.8489 101.751 15.1483V15.1567C101.751 15.4091 101.814 15.6572 101.947 15.8657L101.949 15.8674C102.07 16.0567 102.238 16.2207 102.439 16.3452L102.44 16.346C102.619 16.4604 102.814 16.5512 103.021 16.6235C103.218 16.6917 103.417 16.7497 103.615 16.7976L103.614 16.796L104.469 17.0062L104.472 17.0079C104.788 17.0794 105.097 17.1788 105.395 17.3048V17.3065H105.397C105.68 17.4251 105.933 17.5756 106.153 17.7522C106.362 17.9221 106.524 18.1198 106.646 18.3578C106.759 18.5798 106.821 18.8481 106.821 19.1837C106.821 19.6379 106.71 20.0046 106.485 20.3335C106.261 20.6589 105.941 20.9188 105.484 21.1173C105.037 21.3108 104.475 21.4167 103.788 21.4167C103.126 21.4167 102.566 21.3158 102.111 21.1257V21.1241H102.109C101.651 20.9348 101.318 20.6724 101.073 20.325C100.913 20.0988 100.874 19.775 100.81 19.4714H101.61C101.676 19.6884 101.709 19.9239 101.848 20.0954L101.85 20.0971L101.851 20.0988C102.074 20.3654 102.366 20.5605 102.698 20.685L102.701 20.6867H102.703C103.031 20.8061 103.391 20.8642 103.775 20.8642C104.174 20.8642 104.543 20.8036 104.872 20.6758H104.873C105.189 20.559 105.467 20.3608 105.681 20.1013C105.893 19.8406 106.005 19.5126 106.009 19.1762V19.1661C106.01 18.8534 105.898 18.5508 105.695 18.3132L105.693 18.3107C105.493 18.0971 105.248 17.93 104.976 17.8212H104.974C104.678 17.6981 104.372 17.598 104.06 17.5218H104.058L103.026 17.2611C102.324 17.0828 101.796 16.8195 101.428 16.4898H101.426C101.077 16.1786 100.916 15.8077 100.916 15.2577C100.916 14.8069 101.034 14.4427 101.273 14.118L101.275 14.1163C101.518 13.7833 101.85 13.5234 102.295 13.3291C102.74 13.134 103.248 13.0347 103.836 13.0347ZM97.5806 13.155H98.3813V19.0374C98.3787 19.5563 98.2694 19.9718 98.0667 20.3175C97.8643 20.6623 97.5651 20.9401 97.2063 21.1165C96.8346 21.3032 96.3905 21.4058 95.8631 21.4058C95.4282 21.4134 94.9966 21.3291 94.5965 21.1585C94.2579 21.0151 93.9689 20.7753 93.7655 20.4689H93.7639V20.4672C93.6394 20.283 93.6183 19.9962 93.5704 19.7371H94.3745C94.4115 19.8793 94.4123 20.0349 94.4872 20.1594C94.631 20.3991 94.8429 20.5942 95.0919 20.7195H95.0936C95.3459 20.8457 95.6302 20.9045 95.9262 20.9045C96.245 20.9045 96.5486 20.8373 96.8085 20.6808C97.0675 20.5269 97.2694 20.288 97.3972 20.0054L97.3981 20.0029C97.5225 19.7212 97.5781 19.399 97.5806 19.0408V19.0391V13.155ZM52.6562 13.4519L54.5402 15.7926L49.9194 21.5345H46.1473L52.6562 13.4519ZM90.8656 19.4613C90.4989 19.4613 90.1422 19.6059 89.8815 19.8608C89.6191 20.1156 89.4694 20.4689 89.4719 20.8322C89.4694 21.1997 89.6183 21.5572 89.8807 21.8137C90.1422 22.0677 90.4989 22.2124 90.8647 22.2124C91.1086 22.2124 91.3475 22.1468 91.5536 22.0257C91.7605 21.9071 91.932 21.738 92.0557 21.5395L92.0573 21.5379C92.1877 21.3276 92.2542 21.0837 92.2575 20.8389V20.8272C92.2547 20.646 92.216 20.4672 92.1435 20.3012C92.071 20.1351 91.9662 19.9852 91.8353 19.8599C91.576 19.6063 91.2283 19.4633 90.8656 19.4613ZM90.8656 20.2956C91.0254 20.2956 91.1288 20.3377 91.2533 20.4588H91.255V20.4605C91.3093 20.5056 91.3525 20.5626 91.3814 20.627C91.4102 20.6915 91.424 20.7616 91.4215 20.8322C91.419 20.9281 91.3918 21.0217 91.3424 21.1039C91.293 21.1862 91.2232 21.2542 91.1397 21.3015L91.1339 21.3049L91.1305 21.3066C91.0509 21.3555 90.9589 21.3803 90.8656 21.3781C90.7904 21.3825 90.7151 21.3702 90.6453 21.342C90.5755 21.3138 90.5128 21.2704 90.4619 21.2149C90.4075 21.1686 90.3649 21.1101 90.3375 21.0442C90.3102 20.9782 90.2989 20.9067 90.3046 20.8356V20.8288C90.2997 20.759 90.3115 20.6891 90.339 20.6247C90.3665 20.5604 90.4089 20.5035 90.4627 20.4588C90.5135 20.4034 90.5761 20.3601 90.6458 20.3318C90.7154 20.3036 90.7905 20.2912 90.8656 20.2956Z" fill="white"/>
</svg>
