<svg width="108" height="67" viewBox="0 0 108 67" fill="none" xmlns="http://www.w3.org/2000/svg">
<path d="M72.388 0.00210304C72.2846 0.00124823 72.1827 0.0272849 72.0923 0.0776617C71.9983 0.132411 71.9199 0.210414 71.8646 0.304185C71.8094 0.397956 71.7792 0.504347 71.7769 0.613149V16.534C71.7751 16.6124 71.754 16.6891 71.7153 16.7574C71.6766 16.8256 71.6215 16.8831 71.5551 16.9249C71.488 16.961 71.4129 16.9798 71.3367 16.9798C71.2604 16.9798 71.1854 16.961 71.1182 16.9249L68.5396 15.4337C68.3503 15.3251 68.1359 15.268 67.9176 15.268C67.6994 15.268 67.485 15.3251 67.2957 15.4337L56.9762 21.4345C56.7851 21.5421 56.6259 21.6982 56.5145 21.8871C56.4032 22.076 56.3437 22.2909 56.3421 22.5102V34.4866C56.3421 34.9273 56.5868 35.3453 56.9762 35.5656L67.2957 41.5664C67.4848 41.6747 67.6989 41.7317 67.9168 41.7317C68.1347 41.7317 68.3488 41.6747 68.5379 41.5664L78.8574 35.5656C79.2468 35.3453 79.4915 34.9271 79.4915 34.4866V4.62977C79.4915 4.16468 79.2468 3.74584 78.8574 3.52717L72.701 0.0755586C72.6037 0.0263935 72.4964 0.000526229 72.3873 0L72.388 0.00210304ZM11.5054 14.9473C11.312 14.9473 11.1184 15.0206 10.9485 15.1165L0.62903 21.0938C0.434994 21.2043 0.273949 21.3646 0.162496 21.5581C0.0510429 21.7516 -0.00678503 21.9714 -0.005027 22.1947L0.0196154 38.2585C0.0196154 38.4797 0.139884 38.7005 0.335004 38.7989C0.425354 38.8588 0.531333 38.8907 0.639711 38.8907C0.74809 38.8907 0.854069 38.8588 0.944419 38.7989L7.07978 35.2725C7.27048 35.1643 7.42924 35.0078 7.54 34.8186C7.65077 34.6294 7.7096 34.4143 7.71056 34.1951V26.6771C7.71056 26.2364 7.95437 25.8184 8.34461 25.598L10.9485 24.08C11.1387 23.9639 11.3581 23.9046 11.5809 23.9091C11.7996 23.9091 12.0196 23.9572 12.1903 24.08L14.7942 25.598C15.1836 25.8184 15.4282 26.2365 15.4282 26.6771V34.1951C15.4282 34.6341 15.6705 35.0538 16.059 35.2725L22.1448 38.7989C22.2394 38.8587 22.349 38.8905 22.461 38.8905C22.5729 38.8905 22.6826 38.8587 22.7772 38.7989C22.8741 38.746 22.9548 38.6678 23.0106 38.5726C23.0665 38.4774 23.0954 38.3689 23.0943 38.2585V22.1947C23.0943 21.754 22.8505 21.3368 22.4602 21.1156L12.1659 15.1165C11.9928 15.0237 11.803 14.9662 11.6074 14.9473H11.5054ZM96.1977 15.1214V15.1231L96.1961 15.1247C95.9833 15.1247 95.772 15.1796 95.5769 15.2906L85.2573 21.2881C84.8679 21.5101 84.6266 21.9257 84.6266 22.3671V34.3435C84.6266 34.7842 84.8679 35.2013 85.2573 35.4208L95.5012 41.298C95.6857 41.4062 95.8957 41.4633 96.1097 41.4633C96.3236 41.4633 96.5336 41.4062 96.7181 41.298L102.926 37.822C103.022 37.7689 103.103 37.6906 103.158 37.5954C103.214 37.5002 103.242 37.3917 103.241 37.2815C103.242 37.1716 103.213 37.0635 103.158 36.9687C103.102 36.8738 103.022 36.7958 102.926 36.7428L92.5559 30.742C92.4609 30.6862 92.382 30.6068 92.3267 30.5116C92.2714 30.4163 92.2417 30.3084 92.2405 30.1983V26.4514C92.2397 26.342 92.2687 26.2344 92.3242 26.1402C92.3798 26.0459 92.4598 25.9684 92.5559 25.916L95.798 24.0547C95.8927 23.995 96.0024 23.9634 96.1143 23.9634C96.2262 23.9634 96.3358 23.995 96.4305 24.0547L99.6635 25.916C99.7574 25.9709 99.8359 26.0489 99.8913 26.1426C99.9468 26.2363 99.9775 26.3426 99.9805 26.4514V29.39C99.9805 29.6112 100.102 29.8312 100.296 29.9288C100.391 29.9889 100.501 30.0208 100.613 30.0208C100.725 30.0208 100.835 29.9889 100.93 29.9288L107.062 26.33C107.25 26.221 107.406 26.064 107.514 25.875C107.621 25.686 107.677 25.4718 107.675 25.2543V22.3401C107.675 21.8994 107.428 21.4823 107.062 21.2611L96.8181 15.2897C96.6288 15.1803 96.4143 15.122 96.1956 15.1205H96.194L96.1977 15.1214ZM39.6885 15.3186C39.5445 15.343 39.4032 15.3904 39.273 15.4664L29.2899 21.2637L40.3495 41.6672C40.408 41.6444 40.4666 41.6171 40.522 41.5851L50.8331 35.5961C50.9804 35.5103 51.1053 35.3967 51.2043 35.2643L39.6905 15.3149L39.6885 15.3186ZM40.7676 15.6126L47.6027 27.4628L50.8449 21.4654C50.8387 21.4616 50.8331 21.4575 50.8268 21.4539L40.768 15.6162L40.7676 15.6126ZM28.6398 21.7252C28.4511 21.9485 28.3408 22.2339 28.3408 22.5351V34.5114C28.3408 34.6595 28.3692 34.8017 28.418 34.9369L32.2237 28.3364L28.6392 21.7217L28.6398 21.7252ZM51.3815 22.1309L48.0652 28.2596L51.4504 34.1275V22.538C51.4504 22.3977 51.4254 22.2628 51.3814 22.1339L51.3815 22.1309ZM67.9415 24.0679C67.9961 24.0679 68.0504 24.0804 68.1008 24.1056L71.6273 26.1636C71.7249 26.2124 71.7751 26.333 71.7751 26.4314V30.5466C71.7751 30.6694 71.724 30.7689 71.6273 30.8177L68.0991 32.874C68.0498 32.8981 67.9955 32.9105 67.9406 32.9105C67.8857 32.9105 67.8315 32.8981 67.7821 32.874L64.2539 30.8194C64.1564 30.7706 64.1061 30.6467 64.1061 30.5483V26.4331C64.1061 26.3103 64.1572 26.2134 64.2539 26.1637L67.7821 24.1057C67.8316 24.081 67.8861 24.0679 67.9415 24.0679ZM96.1582 25.7331C96.1149 25.7334 96.0726 25.7465 96.0367 25.7709L94.0636 26.9223C94.0264 26.9452 93.9958 26.9774 93.9748 27.0157C93.9538 27.054 93.943 27.0971 93.9437 27.1408V29.4452C93.9437 29.5428 93.9904 29.6165 94.0636 29.6653L96.0367 30.8167C96.0727 30.8405 96.115 30.8533 96.1583 30.8533C96.2015 30.8533 96.2438 30.8405 96.2798 30.8167L98.2512 29.6653C98.2885 29.642 98.3192 29.6095 98.3405 29.571C98.3617 29.5325 98.3729 29.4892 98.3728 29.4452V27.1424C98.373 27.0987 98.3619 27.0555 98.3406 27.0173C98.3193 26.979 98.2886 26.9468 98.2512 26.9239L96.2798 25.7709C96.2438 25.7471 96.2015 25.7345 96.1583 25.7347L96.1582 25.7331ZM32.66 29.1528L28.9476 35.5901C28.9517 35.5925 28.955 35.5959 28.9591 35.5983L39.2618 41.5873C39.3194 41.6205 39.38 41.6478 39.4409 41.6711L32.6571 29.1564L32.66 29.1528ZM53.1897 39.5143C52.8306 39.5143 52.4724 39.599 52.1678 39.7706L42.4538 45.4308C42.1422 45.6134 41.8838 45.8745 41.7045 46.1881C41.5252 46.5016 41.4313 46.8567 41.432 47.218V58.5047C41.432 59.2397 41.8212 59.9252 42.4538 60.2936L45.0114 61.762C46.252 62.3743 46.6893 62.3698 47.2486 62.3698C49.0736 62.3698 50.1216 61.2454 50.1216 59.311V48.1757C50.1207 48.0984 50.0899 48.0244 50.0357 47.9693C49.9815 47.9142 49.9081 47.8822 49.8308 47.8799H48.5903C48.5122 47.8809 48.4375 47.9124 48.3823 47.9676C48.327 48.0229 48.2956 48.0975 48.2946 48.1757V59.3194C48.2946 60.1764 47.3981 61.0343 45.9624 60.3L43.3081 58.7576C43.2105 58.7088 43.1619 58.5841 43.1619 58.4865V47.1914C43.1619 47.0938 43.2106 46.9699 43.3081 46.922L53.0136 41.2913C53.0868 41.2425 53.2084 41.2425 53.3077 41.2913L63.0132 46.922C63.11 46.9725 63.1611 47.0703 63.1611 47.1914V58.4781C63.1611 58.6 63.1108 58.7004 63.0132 58.7492L53.2993 64.4068C53.2261 64.4556 53.1045 64.4556 53.0052 64.4068L50.525 62.9123C50.451 62.8635 50.3526 62.8406 50.2803 62.8877C49.599 63.2813 49.4793 63.331 48.8219 63.5513C48.6756 63.6001 48.4327 63.6961 48.9188 63.9653L52.1585 65.9022C52.4747 66.0729 52.8143 66.17 53.1803 66.17C53.5454 66.17 53.9086 66.0734 54.2005 65.9515L63.9145 60.2938C64.2263 60.1105 64.4847 59.8488 64.664 59.5347C64.8433 59.2205 64.9372 58.8649 64.9363 58.5032V47.2165C64.9363 46.4815 64.5471 45.7985 63.9145 45.431L54.2005 39.7708C53.8878 39.5999 53.5367 39.5117 53.1803 39.5146V39.5129L53.1897 39.5143ZM68.3536 44.669C67.8549 44.671 67.3775 44.871 67.0263 45.2249C66.6751 45.5788 66.4788 46.0577 66.4806 46.5563C66.4792 47.0546 66.6757 47.5331 67.0269 47.8867C67.3781 48.2402 67.8552 48.4399 68.3536 48.4419C69.3771 48.4419 70.2291 47.5841 70.2291 46.5563C70.2264 46.0588 70.0283 45.5822 69.6775 45.2295C69.3266 44.8767 68.8511 44.676 68.3536 44.6707V44.669ZM68.3289 44.9861H68.3306C68.5381 44.9835 68.7441 45.0223 68.9365 45.1001C69.1289 45.178 69.3039 45.2933 69.4513 45.4395C69.5987 45.5856 69.7156 45.7596 69.795 45.9514C69.8745 46.1431 69.915 46.3488 69.9142 46.5563C69.9142 47.4142 69.2071 48.1467 68.3306 48.1467C67.4794 48.1467 66.7713 47.4381 66.7713 46.5563C66.7713 45.6749 67.5027 44.9878 68.3289 44.9861ZM67.6473 45.5019V47.6558H68.0628V46.803H68.4308C68.5771 46.803 68.624 46.8519 68.6493 46.9738C68.6493 46.999 68.7215 47.5366 68.7215 47.6342H69.1585C69.108 47.5366 69.0859 47.2407 69.0616 47.0691C69.038 46.8 69.0142 46.6056 68.7215 46.5812C68.8679 46.5316 69.1092 46.459 69.1092 46.0671C69.1092 45.5036 68.6213 45.5037 68.3782 45.5037L67.6473 45.5019ZM68.0152 45.8452H68.3536C68.4764 45.8452 68.6722 45.8449 68.6722 46.1393C68.6722 46.2368 68.6227 46.4333 68.3536 46.4333H68.0152V45.8452ZM55.8454 47.5357C53.07 47.5357 51.4123 48.7123 51.4123 50.6963C51.4123 52.8275 53.0675 53.412 55.7209 53.6812C58.9085 54.0008 59.1524 54.467 59.1524 55.1034C59.1524 56.2051 58.276 56.6685 56.2315 56.6685C53.6512 56.6685 53.0902 56.032 52.8951 54.735C52.8951 54.587 52.7769 54.4902 52.6306 54.4902H51.3656C51.3268 54.4901 51.2882 54.4976 51.2523 54.5124C51.2163 54.5272 51.1836 54.549 51.1561 54.5765C51.1287 54.6039 51.1069 54.6366 51.0921 54.6726C51.0773 54.7085 51.0698 54.7471 51.0699 54.7859C51.0699 56.4512 51.9488 58.4083 56.2095 58.4083C59.2751 58.4083 61.0488 57.1837 61.0488 55.0273C61.0488 52.9222 59.6359 52.357 56.6435 51.9651C53.6242 51.5732 53.3088 51.3526 53.3088 50.643C53.3088 50.0551 53.5783 49.273 55.8151 49.273C57.8125 49.273 58.5678 49.7137 58.8605 51.0602C58.8744 51.1209 58.9077 51.1754 58.9555 51.2155C59.0032 51.2555 59.0627 51.2788 59.125 51.2819H60.4159C60.4891 51.2819 60.5651 51.2338 60.6147 51.185C60.6603 51.1199 60.6854 51.0427 60.687 50.9633C60.4927 48.6126 58.9603 47.5352 55.8443 47.5352L55.8454 47.5357Z" fill="#5FA04E"/>
</svg>
