<svg width="108" height="108" viewBox="0 0 108 108" fill="none" xmlns="http://www.w3.org/2000/svg">
<path d="M53.8278 47.7722C58.1477 47.7722 61.6497 44.2703 61.6497 39.9504C61.6497 35.6305 58.1477 32.1285 53.8278 32.1285C49.5079 32.1285 46.006 35.6305 46.006 39.9504C46.006 44.2703 49.5079 47.7722 53.8278 47.7722Z" fill="#61DAFB"/>
<path d="M53.8278 68.7146C59.9676 74.6861 66.0232 78.2186 70.9013 78.2186C72.4993 78.2186 74.0133 77.8821 75.2748 77.1252C79.6484 74.602 81.2464 68.2941 79.7325 59.2947C79.4801 57.6967 79.1437 56.0987 78.7232 54.4166C80.4053 53.9119 81.9192 53.4073 83.4331 52.9027C91.9278 49.6225 96.6378 45.0808 96.6378 40.1186C96.6378 35.0722 91.9278 30.5305 83.4331 27.3344C81.9192 26.7457 80.4053 26.2411 78.7232 25.8205C79.1437 24.1384 79.4801 22.5404 79.7325 20.9424C81.1623 11.7748 79.5642 5.38279 75.1907 2.85961C73.9291 2.10266 72.4152 1.76624 70.8172 1.76624C66.0232 1.76624 59.8834 5.29869 53.7437 11.2702C47.6881 5.29869 41.6325 1.76624 36.7543 1.76624C35.1563 1.76624 33.6424 2.10266 32.3808 2.85961C28.0073 5.38279 26.4093 11.6907 27.9232 20.6901C28.1755 22.2881 28.5119 23.8861 28.9325 25.5682C27.2503 26.0729 25.7364 26.5775 24.2225 27.0821C15.7278 30.3623 11.0179 34.904 11.0179 39.8662C11.0179 44.9126 15.7278 49.4543 24.2225 52.6503C25.7364 53.2391 27.2503 53.7437 28.9325 54.1643C28.5119 55.8464 28.1755 57.4444 27.9232 59.0424C26.4934 68.0417 28.0914 74.4338 32.3808 76.8729C33.6424 77.6298 35.1563 77.9662 36.7543 77.9662C41.6325 78.1344 47.6881 74.602 53.8278 68.7146ZM49.1179 57.3603C50.6318 57.4444 52.2298 57.4444 53.8278 57.4444C55.4258 57.4444 57.0238 57.4444 58.5378 57.3603C57.0238 59.3788 55.4258 61.2292 53.8278 62.9954C52.2298 61.2292 50.6318 59.3788 49.1179 57.3603ZM38.6887 48.6974C39.5298 50.1272 40.2868 51.4729 41.2119 52.8186C38.6046 52.4821 36.1656 52.0616 33.8106 51.557C34.5676 49.2861 35.4086 46.9311 36.4179 44.5762C37.0907 45.9219 37.8477 47.3517 38.6887 48.6974ZM33.8106 28.4278C36.1656 27.9232 38.6046 27.5027 41.2119 27.1662C40.3709 28.5119 39.5298 29.8576 38.6887 31.2874C37.8477 32.7172 37.0907 34.0629 36.4179 35.4927C35.3245 33.0537 34.4834 30.6987 33.8106 28.4278ZM38.4364 39.9503C39.5298 37.6795 40.7073 35.4086 42.053 33.1378C43.3146 30.951 44.7444 28.7642 46.1742 26.5775C48.6974 26.4093 51.2205 26.3252 53.8278 26.3252C56.5192 26.3252 59.0424 26.4093 61.4815 26.5775C62.9954 28.7642 64.3411 30.951 65.6027 33.1378C66.9483 35.4086 68.1258 37.6795 69.2192 39.9503C68.1258 42.2212 66.9483 44.4921 65.6027 46.7629C64.3411 48.9497 62.9113 51.1364 61.4815 53.3232C58.9583 53.4914 56.4351 53.5755 53.8278 53.5755C51.1364 53.5755 48.6133 53.4914 46.1742 53.3232C44.6603 51.1364 43.3146 48.9497 42.053 46.7629C40.7073 44.4921 39.5298 42.2212 38.4364 39.9503ZM71.3219 35.4086L69.051 31.2033C68.2099 29.7735 67.453 28.4278 66.5278 27.0821C69.1351 27.4186 71.5742 27.8391 73.9291 28.3437C73.1722 30.6987 72.3311 33.0537 71.3219 35.4086ZM71.3219 44.4921C72.3311 46.847 73.1722 49.202 73.9291 51.4729C71.5742 51.9775 69.1351 52.398 66.5278 52.7345C67.3689 51.3888 68.2099 50.0431 69.051 48.6133C69.808 47.3517 70.5649 45.9219 71.3219 44.4921ZM73.2563 73.6768C72.5834 74.0974 71.7424 74.2656 70.8172 74.2656C66.696 74.2656 61.5656 70.9013 56.5192 65.855C58.9583 63.2477 61.3132 60.304 63.6682 57.0239C67.6212 56.6874 71.406 56.0987 74.9384 55.2576C75.3589 56.7715 75.6113 58.2854 75.8636 59.7994C77.0411 66.9484 76.1159 72.0788 73.2563 73.6768ZM77.6298 29.353C87.0497 32.0444 92.6848 36.1656 92.6848 39.9503C92.6848 43.2305 88.8159 46.5106 82.0033 49.1179C80.6576 49.6225 79.1437 50.1272 77.6298 50.5477C76.5364 47.0993 75.1907 43.5669 73.5086 39.9503C75.1907 36.3338 76.6205 32.8013 77.6298 29.353ZM70.9013 5.63511C71.8265 5.63511 72.5834 5.80332 73.3404 6.22385C76.1159 7.82186 77.1252 12.8682 75.9477 20.1013C75.6954 21.5311 75.3589 23.045 75.0225 24.6431C71.4901 23.8861 67.7053 23.2974 63.7523 22.8768C61.4815 19.5967 59.0424 16.653 56.6033 14.0457C61.6497 9.08345 66.7801 5.63511 70.9013 5.63511ZM58.5378 22.5404C57.0238 22.4563 55.4258 22.4563 53.8278 22.4563C52.2298 22.4563 50.6318 22.4563 49.1179 22.5404C50.6318 20.5219 52.2298 18.6715 53.8278 16.9053C55.4258 18.6715 57.0238 20.606 58.5378 22.5404ZM34.3993 6.22385C35.0722 5.80332 35.9132 5.63511 36.8384 5.63511C40.9596 5.63511 46.0901 8.99935 51.1364 14.0457C48.6974 16.653 46.3424 19.5967 43.9874 22.8768C40.0344 23.2133 36.2497 23.802 32.7172 24.6431C32.2967 23.1291 32.0444 21.6152 31.7921 20.1013C30.6146 12.9523 31.5397 7.90597 34.3993 6.22385ZM30.0258 50.5477C20.606 47.8563 14.9709 43.7351 14.9709 39.9503C14.9709 36.6702 18.8397 33.3901 25.6523 30.7828C26.998 30.2782 28.5119 29.7735 30.0258 29.353C31.1192 32.8013 32.4649 36.3338 34.147 39.9503C32.4649 43.5669 31.0351 47.1835 30.0258 50.5477ZM31.7921 59.7994C32.0444 58.3695 32.3808 56.8556 32.7172 55.2576C36.2497 56.0146 40.0344 56.6033 43.9874 57.0239C46.2583 60.304 48.6974 63.2477 51.1364 65.855C46.0901 70.8172 40.9596 74.2656 36.8384 74.2656C35.9132 74.2656 35.1563 74.0974 34.3993 73.6768C31.5397 72.0788 30.6146 66.9484 31.7921 59.7994ZM28.2596 94.451C30.1099 92.1801 30.194 89.657 29.1848 87.1338C28.1755 84.6106 26.0729 83.4331 23.4656 83.349C20.3536 83.2649 17.1576 83.349 14.0457 83.349H13.457V105.132H15.9801V96.8901H19.9331C20.4378 96.8901 20.8583 97.0583 21.1106 97.4788L26.157 105.301C26.2411 105.469 26.4934 105.721 26.6616 105.721H29.9417C27.9232 102.609 25.9887 99.6656 23.9702 96.6378C25.7364 96.3854 27.2503 95.7967 28.2596 94.451ZM15.9801 94.2828V85.9563H16.9053C18.8397 85.9563 20.8583 85.8722 22.7927 86.0404C25.0636 86.1245 26.6616 87.8907 26.6616 90.1616C26.6616 92.4325 24.8113 94.1987 22.5404 94.2828C20.5219 94.3669 18.5033 94.2828 15.9801 94.2828ZM48.5291 95.3762C47.1834 89.4888 41.8007 87.9749 37.6795 89.8252C34.4834 91.255 33.0536 94.0305 32.9695 97.4788C32.8854 100.086 33.6424 102.441 35.6609 104.207C37.9318 106.226 40.7073 106.478 43.5669 105.974C45.1649 105.637 46.5947 104.88 47.6881 103.703C47.2676 103.114 46.847 102.525 46.4265 102.021C44.0715 104.039 41.4642 104.712 38.6046 103.366C36.7543 102.441 35.8291 100.17 35.6609 98.4881H48.6974V97.3947C48.7815 96.6378 48.6974 95.9649 48.5291 95.3762ZM35.8291 96.7219C35.5768 94.1987 38.1 91.5073 40.8755 91.5073C44.0715 91.4232 46.0901 93.3576 46.1742 96.7219H35.8291ZM61.6497 89.4047C60.3881 89.1523 59.0424 89.0682 57.7808 89.1523C55.7623 89.3205 53.996 90.2457 52.5662 91.7596C52.9868 92.3484 53.3232 92.9371 53.8278 93.6099C53.996 93.4417 54.1642 93.2735 54.3325 93.1894C55.6782 91.9278 57.2762 91.255 59.2106 91.4232C60.7245 91.5073 62.1543 92.0119 62.5748 93.5258C62.9113 94.7033 62.8272 95.9649 62.9113 97.2265C62.6589 97.2265 62.5748 97.1424 62.4907 97.0583C60.4722 95.3762 58.2013 95.0397 55.7623 95.6285C53.4914 96.2172 52.0616 97.9835 51.8934 100.254C51.7252 102.862 52.9027 104.796 55.1735 105.721C56.6033 106.31 58.2013 106.31 59.7152 105.974C60.8927 105.721 61.3974 105.048 63.0795 104.123V105.217H65.4344C65.4344 101.852 65.5186 97.7311 65.4344 93.8623C65.4344 91.4232 64.0046 89.9093 61.6497 89.4047ZM62.8272 100.002C62.743 100.254 62.8272 100.507 62.8272 100.759C62.8272 102.525 62.4066 103.114 60.7245 103.787C59.547 104.207 58.2854 104.376 57.0238 103.955C55.594 103.534 54.5848 102.273 54.5848 100.843C54.5007 99.4133 55.4258 97.9835 56.8556 97.5629C58.7901 96.8901 60.5563 97.3106 62.1543 98.4881C62.6589 98.9086 62.9954 99.3292 62.8272 100.002ZM75.9477 91.6755C78.1344 91.0027 80.153 91.4232 81.6669 93.2735L81.9192 93.4417C82.508 92.9371 83.0126 92.4325 83.6854 91.8437C83.4331 91.5914 83.349 91.4232 83.1808 91.1709C80.7417 88.5636 75.9477 88.2272 73.004 90.3298C68.8828 93.3576 68.9669 99.245 70.9854 102.357C72.9199 105.301 75.6954 106.31 78.9755 105.889C80.9099 105.637 82.5079 104.712 83.7695 103.114C83.1808 102.609 82.5921 102.105 82.0033 101.516C81.8351 101.684 81.751 101.768 81.6669 101.936C79.396 104.46 75.6113 104.207 73.5927 101.516C72.4152 99.9179 72.1629 98.0676 72.4993 96.2172C72.6676 94.1146 73.7609 92.4325 75.9477 91.6755ZM93.4417 103.114C93.2735 103.198 93.1894 103.282 93.1894 103.282C92.5166 103.787 91.8437 103.871 91.0868 103.619C90.3298 103.282 90.2457 102.609 90.1616 101.936V92.3484C90.1616 92.1801 90.1616 92.5166 90.2457 91.6755H93.4417V89.1523H90.0775V84.947H87.5543V89.4888H85.3676C85.1993 89.4888 84.947 89.657 84.947 89.8252C84.8629 90.4139 84.947 90.8344 84.947 91.6755H87.6384V102.441C87.6384 103.787 87.9748 104.964 89.1523 105.637C90.4139 106.394 92.853 106.226 93.9464 105.301C94.1146 105.217 94.1987 104.88 94.1987 104.796C93.9464 104.291 93.694 103.703 93.4417 103.114Z" fill="#61DAFB"/>
</svg>
