<svg width="95" height="90" viewBox="0 0 95 90" fill="none" xmlns="http://www.w3.org/2000/svg">
<path d="M65.2656 62.4564C58.6424 75.9971 47.0445 85.1076 31.7008 88.1028C29.3482 88.6791 26.9331 88.9609 24.511 88.9417C15.6802 88.9417 7.58518 85.2622 3.65543 79.2351C-1.62102 71.2063 -3.41663 54.1848 13.9802 41.5934C14.3334 43.5142 15.0546 46.1487 15.533 47.7088C12.1179 50.246 9.32248 53.5245 7.35704 57.2977C4.11905 63.6559 4.47965 70.0068 8.31372 75.8793C10.963 79.8385 15.1577 82.2449 20.5519 82.9808C27.2893 83.8336 34.1244 82.5464 40.0902 79.3013C49.4436 74.3855 55.6767 68.5129 59.7536 60.4842C58.6008 59.2929 57.9185 57.7243 57.8329 56.0687C57.7713 54.2922 58.417 52.5637 59.6283 51.2627C60.8397 49.9616 62.5177 49.1943 64.2942 49.1291H64.5444C66.2722 49.1205 67.9373 49.7764 69.1951 50.9612C70.4529 52.1459 71.207 53.7689 71.3016 55.4942C71.3961 57.2195 70.8238 58.9151 69.703 60.2302C68.5822 61.5453 66.9987 62.3792 65.2803 62.5594L65.2656 62.4564ZM86.364 47.5911C95.3494 57.776 95.5923 69.764 92.1188 76.7183C88.8808 83.0692 80.3443 89.4274 68.8641 89.4274C63.505 89.3181 58.233 88.0503 53.4101 85.7111C55.0953 84.5115 57.487 82.5908 58.8043 81.3913C62.5235 83.0025 66.5259 83.858 70.5788 83.9081C78.0115 83.9081 83.6411 80.4346 86.9969 74.0837C89.1531 69.8891 89.2782 64.9732 87.2397 59.9396C84.7384 53.6063 80.2875 48.2327 74.5306 44.5959C66.9778 39.5045 58.0739 36.7903 48.9652 36.8027H46.809C46.3062 37.9641 45.4883 38.9616 44.4478 39.6822C43.4073 40.4027 42.1858 40.8175 40.9218 40.8796H40.6936C38.9452 40.8581 37.2741 40.1559 36.0351 38.9221C34.7962 37.6882 34.087 36.02 34.0583 34.2717C34.0295 32.5234 34.6835 30.8328 35.8812 29.5589C37.0789 28.285 38.7261 27.5283 40.4728 27.4493H40.7157C41.9329 27.4502 43.1264 27.7866 44.165 28.4214C45.2035 29.0562 46.0471 29.965 46.603 31.0479H48.5237C63.8305 31.0479 77.2682 36.9204 86.364 47.5911ZM25.4677 64.5169C25.3417 63.2949 25.6377 62.0666 26.3066 61.0361C19.5952 49.4088 16.004 34.6686 21.5159 19.3249C25.4677 7.79325 35.4172 0 46.2056 0C57.7151 0 69.7031 10.0746 71.1381 29.4878C69.3425 28.8917 66.7226 28.016 65.1478 27.6922C64.7578 21.3413 59.393 5.5193 46.6839 5.75479C42.1286 5.8799 35.4172 8.0361 31.9658 12.4663C27.6965 17.7546 25.2129 24.2599 24.8716 31.0479C24.0627 40.3555 26.2464 49.6782 31.1048 57.6583C31.373 57.5603 31.6589 57.5202 31.9437 57.5405H32.1792C33.9592 57.5083 35.6791 58.1846 36.9605 59.4204C38.2419 60.6563 38.9799 62.3506 39.0121 64.1306C39.0443 65.9106 38.3681 67.6305 37.1322 68.9119C35.8963 70.1933 34.202 70.9313 32.422 70.9635H32.1792C30.4427 70.9573 28.7755 70.2812 27.5252 69.0762C26.2749 67.8711 25.5378 66.23 25.4677 64.4949V64.5169Z" fill="#764ABC"/>
</svg>
