<svg width="145" height="18" viewBox="0 0 145 18" fill="none" xmlns="http://www.w3.org/2000/svg">
<path d="M14.9484 0C10.9613 0 8.47607 2.00939 7.4872 5.99088C8.9835 3.98714 10.7364 3.24916 12.7141 3.75659C13.8442 4.03913 14.6659 4.86074 15.5655 5.79198C17.0358 7.28829 18.731 9.01515 22.4356 9.01515C26.4171 9.01515 28.9023 7.00575 29.8911 3.02426C28.3948 5.028 26.642 5.76599 24.6642 5.25855C23.5341 4.97602 22.7181 4.1544 21.8129 3.22316C20.3426 1.72686 18.6474 0 14.9484 0ZM7.4612 8.95751C3.47406 8.95751 0.988875 10.9613 0 14.9473C1.49631 12.939 3.24916 12.2067 5.22691 12.7141C6.35705 12.9966 7.17867 13.8183 8.07826 14.7495C9.54858 16.2458 11.2438 17.9727 14.9484 17.9727C18.9299 17.9727 21.4151 15.9633 22.4039 11.9818C20.9076 13.9855 19.1548 14.7235 17.177 14.2104C16.0469 13.9279 15.2309 13.1119 14.3257 12.1807C12.8814 10.6787 11.1862 8.95751 7.4612 8.95751Z" fill="#000000"/>
<path d="M44.8395 7.54482H42.2391V12.6045C42.2391 13.9595 43.1127 13.9279 44.8384 13.8442V15.8796C41.335 16.3034 39.9528 15.3405 39.9528 12.6045V7.54482H38.027V5.36816H39.9528V2.54281L42.2131 1.86811V5.36816H44.8079V7.54482H44.8395ZM54.7848 5.36816H57.0451V15.8796H54.7848V14.3517C53.9903 15.4558 52.7505 16.1362 51.1118 16.1362C48.256 16.1362 45.8861 13.703 45.8861 10.5951C45.8861 7.46118 48.256 5.05963 51.113 5.05963C52.7505 5.05963 53.9903 5.73433 54.7859 6.83848L54.7848 5.36816ZM51.4475 13.9855C53.3416 13.9855 54.7859 12.5728 54.7859 10.6267C54.7859 8.67496 53.3416 7.26228 51.4475 7.26228C49.559 7.26228 48.1147 8.67496 48.1147 10.6267C48.1463 12.5728 49.5579 13.9855 51.4475 13.9855ZM60.8288 3.78822C60.0388 3.78822 59.3901 3.10788 59.3901 2.3439C59.3901 1.55393 60.0388 0.90523 60.8288 0.90523C61.6199 0.90523 62.2731 1.55393 62.2731 2.3439C62.2991 3.10788 61.6188 3.78822 60.8288 3.78822ZM59.6987 15.8796V5.36929H61.9589V15.8796H59.6987ZM64.5854 15.8796V0.539062H66.8457V15.8796H64.5854ZM81.6268 5.36929H84.0284L80.7216 15.8796H78.4873L76.3106 8.79024L74.108 15.8796H71.8793L68.5725 5.36929H70.973L73.0072 12.6305L75.211 5.36816H77.3876L79.5587 12.6305L81.6268 5.36929ZM86.8221 3.78709C86.0321 3.78709 85.3834 3.10901 85.3834 2.3439C85.3834 1.55393 86.0321 0.90523 86.8221 0.90523C87.6132 0.90523 88.2664 1.55393 88.2664 2.3439C88.2924 3.10788 87.6437 3.78709 86.8221 3.78709ZM85.6919 15.8796V5.36929H87.9522V15.8796H85.6919ZM96.1198 5.08676C98.4637 5.08676 100.159 6.69721 100.159 9.4073V15.8796H97.8986V9.66384C97.8986 8.05225 96.9674 7.23629 95.5547 7.23629C94.0584 7.23629 92.8706 8.10989 92.8706 10.2549V15.9056H90.6103V5.39981H92.8706V6.75485C93.5769 5.6247 94.7071 5.08676 96.1198 5.08676ZM110.953 1.16177H113.213V15.8796H110.953V14.3517C110.162 15.4558 108.917 16.1362 107.28 16.1362C104.423 16.1362 102.053 13.703 102.053 10.5951C102.053 7.46118 104.423 5.05963 107.28 5.05963C108.917 5.05963 110.162 5.73433 110.953 6.83848V1.16177ZM107.619 13.9855C109.509 13.9855 110.953 12.5728 110.953 10.6267C110.953 8.67496 109.509 7.26228 107.619 7.26228C105.726 7.26228 104.282 8.67496 104.282 10.6267C104.282 12.5728 105.725 13.9855 107.619 13.9855ZM120.81 16.1622C117.65 16.1622 115.249 13.7346 115.249 10.6267C115.249 7.48718 117.618 5.08563 120.81 5.08563C122.877 5.08563 124.656 6.15926 125.503 7.80136L123.552 8.9315C123.102 7.94263 122.055 7.31992 120.784 7.31992C118.922 7.31992 117.535 8.73259 117.535 10.6267C117.535 12.5152 118.948 13.9279 120.784 13.9279C122.055 13.9279 123.07 13.2792 123.583 12.3219L125.529 13.4204C124.682 15.0896 122.877 16.1622 120.81 16.1622ZM129.318 8.25116C129.318 10.1724 134.968 9.01513 134.968 12.913C134.968 15.006 133.132 16.1622 130.872 16.1622C128.779 16.1622 127.255 15.1993 126.576 13.703L128.528 12.5728C128.862 13.5357 129.71 14.1008 130.872 14.1008C131.887 14.1008 132.65 13.7606 132.65 12.913C132.65 11.0505 127 12.0914 127 8.33592C127 6.35817 128.695 5.11727 130.84 5.11727C132.567 5.11727 134.006 5.90724 134.744 7.28827L132.818 8.36643C132.452 7.54482 131.719 7.17865 130.84 7.17865C130.024 7.14701 129.318 7.51769 129.318 8.25116ZM139.008 8.25116C139.008 10.1724 144.658 9.01513 144.658 12.913C144.658 15.006 142.822 16.1622 140.561 16.1622C138.468 16.1622 136.945 15.1993 136.267 13.703L138.218 12.5728C138.557 13.5357 139.404 14.1008 140.561 14.1008C141.576 14.1008 142.34 13.7606 142.34 12.913C142.34 11.0505 136.69 12.0914 136.69 8.33592C136.69 6.35817 138.385 5.11727 140.535 5.11727C142.257 5.11727 143.695 5.90724 144.433 7.28827L142.512 8.36643C142.141 7.54482 141.409 7.17865 140.534 7.17865C139.714 7.14701 139.008 7.51769 139.008 8.25116Z" fill="#000000"/>
</svg>
