<svg width="106" height="106" viewBox="0 0 106 106" fill="none" xmlns="http://www.w3.org/2000/svg">
<path d="M0 52.5648V105.13H105.13V0H0V52.5648ZM84.7176 48.3596C87.2356 48.9439 89.5241 50.2608 91.2945 52.1443C92.2691 53.1589 93.1164 54.2886 93.8176 55.5084C93.8176 55.643 89.276 58.7127 86.509 60.4285C86.4081 60.4957 86.0044 60.0584 85.5586 59.394C85.0535 58.5224 84.3358 57.793 83.4725 57.2738C82.6092 56.7547 81.6284 56.4627 80.6217 56.4251C77.4342 56.2065 75.3821 57.8801 75.3989 60.6303C75.3726 61.315 75.5293 61.9944 75.8531 62.5983C76.5511 64.0533 77.8547 64.9196 81.9422 66.6858C89.4695 69.9238 92.6906 72.06 94.6923 75.0961C96.9294 78.4603 97.4257 83.8934 95.9118 87.9135C94.2297 92.2869 90.1086 95.2558 84.2803 96.2398C81.6182 96.5447 78.9286 96.5164 76.2736 96.1557C72.2216 95.4984 68.4838 93.5691 65.6008 90.6469C64.6336 89.5788 62.7497 86.795 62.8675 86.5931C63.1745 86.3652 63.4978 86.16 63.8347 85.9791L67.7034 83.7588L70.7227 82.0095L71.3535 82.943C72.4181 84.4658 73.7728 85.7634 75.34 86.7613C78.7042 88.5275 83.2962 88.2836 85.567 86.2399C86.3295 85.491 86.8051 84.4984 86.9111 83.435C87.0172 82.3715 86.7469 81.3046 86.1474 80.4199C85.3063 79.2509 83.6242 78.2668 78.9229 76.2147C73.4982 73.8766 71.1601 72.4301 69.0239 70.1256C67.6903 68.6049 66.7056 66.8108 66.1391 64.8691C65.7165 62.6509 65.654 60.379 65.9541 58.1408C67.0726 52.9012 71.0003 49.2427 76.7362 48.1577C79.3925 47.8291 82.0832 47.9028 84.7176 48.3764V48.3596ZM60.0416 52.7666V57.0727H46.3916V95.9538H36.7112V57.0643H23.0276V52.8591C22.9908 51.4115 23.0301 49.9629 23.1453 48.5194C23.1958 48.4521 31.5557 48.4185 41.6481 48.4353H59.9911L60.0416 52.7666Z" fill="#007ACC"/>
</svg>
